<svg xmlns="http://www.w3.org/2000/svg" width="28" height="28" fill="none"><path fill="#1C1C1E" d="M3.594 13.364h8.35c1.3 0 1.96-.659 1.96-1.986V7.396c0-1.335-.66-1.986-1.96-1.986h-8.35c-1.301 0-1.96.65-1.96 1.986v3.982c0 1.327.659 1.986 1.96 1.986m14.862 7.295h5.95c1.301 0 1.96-.659 1.96-1.986V8.776c0-1.336-.659-1.995-1.96-1.995h-5.95c-1.3 0-1.96.66-1.96 1.995v9.897c0 1.327.66 1.986 1.96 1.986M5.703 21.9h7.207c1.31 0 1.969-.651 1.969-1.987v-2.839c0-1.336-.66-1.995-1.969-1.995H5.703c-1.31 0-1.969.66-1.969 1.995v2.84c0 1.335.66 1.985 1.97 1.985"/></svg>