<svg xmlns="http://www.w3.org/2000/svg" width="28" height="28" fill="none"><path fill="#1C1C1E" d="M3.646 13.356h8.078c1.45 0 2.18-.721 2.18-2.163V7.537c0-1.441-.73-2.162-2.18-2.162H3.646c-1.45 0-2.18.72-2.18 2.162v3.656c0 1.442.73 2.162 2.18 2.162m15.056 7.391h5.643c1.45 0 2.18-.712 2.18-2.162v-9.73c0-1.44-.73-2.153-2.18-2.153h-5.643c-1.441 0-2.17.712-2.17 2.153v9.73c0 1.45.729 2.162 2.17 2.162M3.857 11.703c-.483 0-.738-.255-.738-.756V7.783c0-.51.255-.756.738-.756h7.647c.492 0 .747.246.747.756v3.164c0 .501-.255.756-.747.756zm15.056 7.4c-.474 0-.738-.254-.738-.755V9.102c0-.51.264-.756.738-.756h5.212c.492 0 .747.246.747.756v9.246c0 .5-.255.756-.747.756zm-13.06 2.778h6.855c1.441 0 2.18-.712 2.18-2.162V17.24c0-1.441-.739-2.153-2.18-2.153H5.853c-1.45 0-2.18.712-2.18 2.153v2.479c0 1.45.73 2.162 2.18 2.162m.21-1.644c-.483 0-.738-.255-.738-.756v-1.995c0-.5.255-.747.738-.747h6.425c.484 0 .747.246.747.747v1.995c0 .501-.263.756-.747.756z"/></svg>