<svg xmlns="http://www.w3.org/2000/svg" width="24" height="24" fill="none"><path fill="#000" d="M12 19a7.23 7.23 0 0 1-5.155-2.154 7.54 7.54 0 0 1-2.194-5.2l-.365.375a.75.75 0 0 1-1.225-.23.75.75 0 0 1 .152-.816l1.651-1.687a.75.75 0 0 1 1.072 0l1.65 1.687a.75.75 0 0 1 .152.821.7.7 0 0 1-.165.236.75.75 0 0 1-1.06-.007l-.362-.368A5.956 5.956 0 0 0 12 17.5a5.79 5.79 0 0 0 4.355-2 .76.76 0 0 1 .566-.255.751.751 0 0 1 .562 1.244A7.3 7.3 0 0 1 12 19m6.6-5.063a.76.76 0 0 1-.535-.225l-1.651-1.687a.76.76 0 0 1-.152-.823.7.7 0 0 1 .165-.235.75.75 0 0 1 1.06.007l.362.367A5.956 5.956 0 0 0 12 5.5a5.8 5.8 0 0 0-4.355 1.995.76.76 0 0 1-.566.255.74.74 0 0 1-.493-.188.75.75 0 0 1-.07-1.062A7.3 7.3 0 0 1 12 4a7.23 7.23 0 0 1 5.155 2.153 7.54 7.54 0 0 1 2.194 5.2l.365-.375a.75.75 0 0 1 1.06-.007.73.73 0 0 1 .226.519.76.76 0 0 1-.213.535l-1.651 1.688a.76.76 0 0 1-.536.225z"/></svg>