<svg xmlns="http://www.w3.org/2000/svg" width="28" height="28" fill="none"><path fill="#1C1C1E" d="M14.255 12.099a.85.85 0 0 0 .852-.862.8.8 0 0 0-.246-.589l-2.39-2.373a9 9 0 0 1 1.555-.123c3.384 0 6.082 2.707 6.082 6.126A6.09 6.09 0 0 1 14 20.395a6.097 6.097 0 0 1-6.108-6.117c0-.527-.343-.905-.853-.905-.527 0-.896.378-.896.905A7.845 7.845 0 0 0 14 22.145a7.84 7.84 0 0 0 7.857-7.867 7.8 7.8 0 0 0-7.83-7.84c-.414 0-.836.036-1.257.097l2.1-2.056a.87.87 0 0 0 .237-.598c0-.484-.369-.879-.852-.879a.79.79 0 0 0-.615.264L10.036 6.93a.87.87 0 0 0-.272.641c0 .246.079.457.272.65l3.612 3.63c.15.168.352.247.607.247"/></svg>