<svg xmlns="http://www.w3.org/2000/svg" width="172" height="175" fill="none"><path fill="#fff" stroke="#fff" stroke-width="4.842" d="M110.078 2.421c6.115 0 10.943 1.973 14.235 5.266 3.293 3.292 5.266 8.12 5.266 14.235v48.156c0 6.115-1.973 10.943-5.266 14.235-3.292 3.293-8.12 5.266-14.235 5.266H61.922c-6.115 0-10.943-1.973-14.235-5.266-3.293-3.292-5.266-8.12-5.266-14.235V21.922c0-6.115 1.973-10.943 5.266-14.235 3.292-3.293 8.12-5.266 14.235-5.266z"/><path fill="#fff" d="M48.474 8.474h75.053v75.053H48.474z"/><path stroke="#756EF3" stroke-linecap="round" stroke-width="9.684" d="m66.421 51.582 10.765 12.11a2.07 2.07 0 0 0 3.27-.225l23.612-35.415"/><path fill="#fff" d="M9.568 132.78H1.472v-5.98h23.23v5.98h-8.096V159H9.568zm27.286 26.68q-3.589 0-6.44-1.564-2.853-1.564-4.463-4.278t-1.61-6.118q0-3.404 1.61-6.118t4.462-4.278 6.44-1.564q3.635 0 6.486 1.564 2.853 1.564 4.462 4.278 1.61 2.714 1.61 6.118t-1.61 6.118-4.462 4.278q-2.85 1.564-6.486 1.564m0-5.566q2.667 0 4.37-1.702 1.748-1.748 1.748-4.692t-1.748-4.646q-1.703-1.748-4.37-1.748-2.67 0-4.37 1.748-1.703 1.702-1.703 4.646t1.703 4.692q1.7 1.702 4.37 1.702m26.918 5.566q-2.714 0-5.244-1.334-2.53-1.38-4.186-4.094-1.61-2.714-1.61-6.532 0-3.864 1.61-6.532 1.61-2.714 4.232-4.048a11.8 11.8 0 0 1 5.566-1.38q3.864 0 6.762 2.346V125.42h6.44V159h-6.44v-2.392q-2.667 2.852-7.13 2.852m1.518-5.336q2.393 0 4.002-1.472 1.61-1.518 1.61-4.048v-2.208q0-2.484-1.656-4.002-1.61-1.518-4.002-1.518-2.668 0-4.324 1.748t-1.656 4.876 1.656 4.876q1.702 1.748 4.37 1.748m29.063 5.336q-3.587 0-6.44-1.564-2.85-1.564-4.462-4.278-1.61-2.714-1.61-6.118t1.61-6.118 4.463-4.278q2.85-1.564 6.44-1.564 3.633 0 6.486 1.564 2.851 1.564 4.462 4.278t1.61 6.118q0 3.404-1.61 6.118t-4.462 4.278-6.487 1.564m0-5.566q2.67 0 4.37-1.702 1.749-1.748 1.749-4.692t-1.748-4.646q-1.703-1.748-4.37-1.748-2.67 0-4.37 1.748-1.703 1.702-1.703 4.646t1.703 4.692q1.7 1.702 4.37 1.702M108.776 136h6.578l3.266 11.73.46 3.68h.23l.552-3.68 3.542-11.73h5.888l3.588 11.73.552 3.68h.23l.46-3.68 3.22-11.73h6.624l-6.9 23h-6.762l-3.956-15.088L122.391 159h-6.762zm46.312 22.402L145.611 136h7.36l4.692 11.454.23 3.358h.368L164.103 136h6.808l-13.064 32.2h-6.716z"/></svg>